<svg version="1.2" baseProfile="tiny-ps" xmlns="http://www.w3.org/2000/svg" viewBox="0 0 962 961" width="962" height="961">
	<title>Layer 1</title>
	<style>
		tspan { white-space:pre }
		.shp0 { fill: #29a0cd } 
	</style>
	<g id="Layer 1">
		<g id="&lt;Group&gt;">
			<path id="&lt;Path&gt;" class="shp0" d="M208.72 497.04L256.72 497.04L256.72 529.04L208.72 529.04L208.72 497.04Z" />
			<path id="&lt;Path&gt;" class="shp0" d="M320.72 577.04L368.72 577.04L368.72 609.04L320.72 609.04L320.72 577.04Z" />
			<path id="&lt;Path&gt;" class="shp0" d="M208.72 577.04L288.72 577.04L288.72 609.04L208.72 609.04L208.72 577.04Z" />
			<path id="&lt;Path&gt;" class="shp0" d="M80.72 577.04L176.72 577.04L176.72 609.04L80.72 609.04L80.72 577.04Z" />
			<path id="&lt;Path&gt;" class="shp0" d="M176.72 657.04L368.72 657.04L368.72 689.04L176.72 689.04L176.72 657.04Z" />
			<path id="&lt;Path&gt;" class="shp0" d="M80.72 657.04L144.72 657.04L144.72 689.04L80.72 689.04L80.72 657.04Z" />
			<path id="&lt;Path&gt;" class="shp0" d="M272.72 737.04L368.72 737.04L368.72 769.04L272.72 769.04L272.72 737.04Z" />
			<path id="&lt;Path&gt;" class="shp0" d="M80.72 737.04L240.72 737.04L240.72 769.04L80.72 769.04L80.72 737.04Z" />
			<path id="&lt;Path&gt;" class="shp0" d="M176.72 817.04L272.72 817.04L272.72 849.04L176.72 849.04L176.72 817.04Z" />
			<path id="&lt;Path&gt;" class="shp0" d="M80.72 817.04L144.72 817.04L144.72 849.04L80.72 849.04L80.72 817.04Z" />
			<path id="&lt;Compound Path&gt;" fill-rule="evenodd" class="shp0" d="M928.72 833.04L960.72 833.04L960.72 865.04L448.72 865.04L448.72 913.04C448.68 939.54 427.21 961.01 400.72 961.04L48.72 961.04C22.22 961.01 0.75 939.54 0.72 913.04L0.72 542.3C0.68 529.56 5.74 517.34 14.77 508.35L124.03 399.1C133.01 390.07 145.23 385.01 157.97 385.04L400.72 385.04C427.21 385.07 448.68 406.54 448.72 433.04L448.72 449.04L416.72 449.04L416.72 433.04C416.71 424.21 409.55 417.05 400.72 417.04L160.72 417.04L160.72 497.04C160.68 523.54 139.21 545.01 112.72 545.04L32.72 545.04L32.72 913.04C32.73 921.87 39.88 929.03 48.72 929.04L400.72 929.04C409.55 929.03 416.71 921.87 416.72 913.04L416.72 865.04L397.96 865.04C393.13 878.71 382.38 889.46 368.71 894.3C343.71 903.13 316.29 890.03 307.45 865.04C298.62 840.05 311.71 812.62 336.71 803.79C361.7 794.95 389.13 808.05 397.96 833.04L512.72 833.04L512.72 737.04C512.72 728.2 519.88 721.04 528.72 721.04L608.72 721.04L608.72 641.04C608.72 632.2 615.88 625.04 624.72 625.04L704.72 625.04L704.72 545.04C704.72 536.2 711.88 529.04 720.72 529.04L800.72 529.04L800.72 449.04C800.72 440.2 807.88 433.04 816.72 433.04L912.72 433.04C921.55 433.04 928.72 440.2 928.72 449.04L928.72 833.04ZM55.34 513.04L112.72 513.04C121.55 513.03 128.71 505.87 128.72 497.04L128.72 439.67L55.34 513.04ZM368.72 849.04C368.72 840.2 361.55 833.04 352.72 833.04C343.88 833.04 336.72 840.2 336.72 849.04C336.72 857.88 343.88 865.04 352.72 865.04C361.55 865.03 368.71 857.87 368.72 849.04ZM544.72 833.04L608.72 833.04L608.72 753.04L544.72 753.04L544.72 833.04ZM640.72 833.04L704.72 833.04L704.72 657.04L640.72 657.04L640.72 833.04ZM736.72 833.04L800.72 833.04L800.72 561.04L736.72 561.04L736.72 833.04ZM896.72 833.04L896.72 465.04L832.72 465.04L832.72 833.04L896.72 833.04Z" />
			<path id="&lt;Compound Path&gt;" fill-rule="evenodd" class="shp0" d="M28.03 396.36C4.11 384.93 -6.02 356.28 5.4 332.36C16.82 308.44 45.48 298.31 69.4 309.73L117.41 261.72C116.67 260.19 116.02 258.62 115.46 257.02C106.63 232.02 119.73 204.61 144.72 195.78C169.71 186.95 197.13 200.05 205.96 225.04L275.47 225.04C278.82 215.55 285.07 207.35 293.33 201.61C315.09 186.5 344.98 191.89 360.09 213.64L436.64 148.03C430.9 134.73 431.48 119.54 438.22 106.71C450.54 83.24 479.55 74.2 503.03 86.52C526.5 98.84 535.54 127.86 523.22 151.33C510.9 174.8 481.88 183.84 458.41 171.52L368.05 248.97C365.17 266.19 353.16 280.48 336.71 286.3C311.72 295.13 284.3 282.03 275.47 257.04L205.96 257.04C205.4 258.65 204.74 260.22 204.01 261.75C192.58 285.66 163.94 295.78 140.03 284.35L92.02 332.36C95.11 338.82 96.72 345.9 96.72 353.06C96.71 379.57 75.22 401.05 48.72 401.04C41.56 401.04 34.49 399.44 28.03 396.36ZM464.72 129.04C464.72 137.88 471.88 145.04 480.72 145.04C489.55 145.04 496.72 137.88 496.72 129.04C496.72 120.2 489.55 113.04 480.72 113.04C471.88 113.05 464.73 120.21 464.72 129.04ZM304.72 241.04C304.72 249.88 311.88 257.04 320.72 257.04C329.55 257.04 336.72 249.88 336.72 241.04C336.72 232.2 329.55 225.04 320.72 225.04C311.88 225.05 304.73 232.21 304.72 241.04ZM144.72 241.04C144.72 249.88 151.88 257.04 160.72 257.04C169.55 257.04 176.72 249.88 176.72 241.04C176.72 232.2 169.55 225.04 160.72 225.04C151.88 225.05 144.73 232.21 144.72 241.04ZM32.72 353.04C32.72 361.88 39.88 369.04 48.72 369.04C57.55 369.04 64.72 361.88 64.72 353.04C64.72 344.2 57.55 337.04 48.72 337.04C39.88 337.05 32.73 344.21 32.72 353.04Z" />
			<path id="&lt;Compound Path&gt;" fill-rule="evenodd" class="shp0" d="M627.85 375.28L627.85 375.28C627.85 375.28 627.85 375.28 627.85 375.28L627.85 375.28ZM627.85 375.28C545.9 313.59 520.97 201.47 569.05 110.87C623.06 9.13 749.31 -29.58 851.06 24.42C952.81 78.42 991.51 204.68 937.51 306.43C883.51 408.17 757.25 446.88 655.51 392.88L540.03 508.35C537.03 511.36 532.96 513.04 528.72 513.04L448.72 513.04L448.72 801.04L416.72 801.04L416.72 513.04L381.96 513.04C377.13 526.71 366.38 537.46 352.71 542.3C327.71 551.13 300.29 538.03 291.45 513.04C282.62 488.05 295.71 460.62 320.71 451.79C345.7 442.95 373.13 456.05 381.96 481.04L522.09 481.04L627.85 375.28ZM352.72 497.04C352.72 488.2 345.55 481.04 336.72 481.04C327.88 481.04 320.72 488.2 320.72 497.04C320.72 505.88 327.88 513.04 336.72 513.04C345.55 513.03 352.71 505.87 352.72 497.04ZM927.98 225.04L788.34 225.04L881.06 329.34C907.91 300.79 924.43 264.07 927.98 225.04ZM768.72 33.78L768.72 193.04L927.98 193.04C920.15 108.54 853.22 41.61 768.72 33.78ZM648.21 67.42C570.01 125.11 553.39 235.28 611.08 313.49C668.78 391.69 778.95 408.31 857.15 350.61L740.76 219.67L740.77 219.66C738.16 216.74 736.71 212.96 736.72 209.04L736.72 33.78C704.69 36.69 674.09 48.33 648.21 67.42Z" />
		</g>
	</g>
</svg>