<svg version="1.2" baseProfile="tiny-ps" xmlns="http://www.w3.org/2000/svg" viewBox="0 0 283 282" width="283" height="282">
	<title>Layer 1</title>
	<style>
		tspan { white-space:pre }
		.shp0 { fill: #29a0cd } 
	</style>
	<g id="Layer 1">
		<g id="&lt;Group&gt;">
			<path id="&lt;Compound Path&gt;" fill-rule="evenodd" class="shp0" d="M282.65 31.94L282.65 204.74C282.65 207.25 280.61 209.28 278.1 209.28L273.55 209.28L273.55 213.83C273.55 221.37 267.45 227.47 259.91 227.47L146.23 227.47L146.23 246.31C152.64 247.96 157.64 252.96 159.3 259.37C161.81 269.1 155.96 279.02 146.23 281.53C136.5 284.04 126.58 278.19 124.07 268.47C121.56 258.74 127.41 248.82 137.14 246.31L137.14 227.47L23.46 227.47C15.92 227.47 9.81 221.37 9.81 213.83L9.81 209.28L5.27 209.28C2.75 209.28 0.72 207.25 0.72 204.74L0.72 31.94C0.72 29.43 2.75 27.39 5.27 27.39L28 27.39L28 4.66C28 2.15 30.04 0.11 32.55 0.11L250.82 0.11C253.33 0.11 255.37 2.15 255.37 4.66L255.37 27.39L278.1 27.39C280.61 27.39 282.65 29.43 282.65 31.94ZM141.68 254.76C136.66 254.76 132.59 258.83 132.59 263.85C132.59 268.87 136.66 272.95 141.68 272.95C146.71 272.95 150.78 268.87 150.78 263.85C150.78 258.83 146.71 254.76 141.68 254.76ZM37.1 9.2L37.1 36.49L73.48 36.49C75.99 36.49 78.02 38.52 78.02 41.04L78.02 141.07C78.02 143.59 75.99 145.62 73.48 145.62L37.1 145.62L37.1 172.91L246.27 172.91L246.27 145.62L209.89 145.62C207.38 145.62 205.35 143.59 205.35 141.07L205.35 41.04C205.35 38.52 207.38 36.49 209.89 36.49L246.27 36.49L246.27 9.2L37.1 9.2ZM273.55 36.49L255.37 36.49L255.37 177.45C255.37 179.96 253.33 182 250.82 182L32.55 182C30.04 182 28 179.96 28 177.45L28 36.49L9.81 36.49L9.81 200.19L273.55 200.19L273.55 36.49ZM37.1 136.53L68.93 136.53L68.93 45.58L37.1 45.58L37.1 136.53ZM264.46 209.28L18.91 209.28L18.91 213.83C18.91 216.34 20.94 218.38 23.46 218.38L259.91 218.38C262.42 218.38 264.46 216.34 264.46 213.83L264.46 209.28ZM246.27 45.58L214.44 45.58L214.44 136.53L246.27 136.53L246.27 45.58Z" />
			<path id="&lt;Path&gt;" class="shp0" d="M46.19 18.3L55.29 18.3L55.29 27.39L46.19 27.39L46.19 18.3Z" />
			<path id="&lt;Path&gt;" class="shp0" d="M64.38 18.3L73.48 18.3L73.48 27.39L64.38 27.39L64.38 18.3Z" />
			<path id="&lt;Path&gt;" class="shp0" d="M82.57 18.3L91.66 18.3L91.66 27.39L82.57 27.39L82.57 18.3Z" />
			<path id="&lt;Path&gt;" class="shp0" d="M100.76 18.3L109.85 18.3L109.85 27.39L100.76 27.39L100.76 18.3Z" />
			<path id="&lt;Path&gt;" class="shp0" d="M118.95 18.3L128.04 18.3L128.04 27.39L118.95 27.39L118.95 18.3Z" />
			<path id="&lt;Path&gt;" class="shp0" d="M137.14 18.3L146.23 18.3L146.23 27.39L137.14 27.39L137.14 18.3Z" />
			<path id="&lt;Path&gt;" class="shp0" d="M155.33 18.3L164.42 18.3L164.42 27.39L155.33 27.39L155.33 18.3Z" />
			<path id="&lt;Path&gt;" class="shp0" d="M173.51 18.3L182.61 18.3L182.61 27.39L173.51 27.39L173.51 18.3Z" />
			<path id="&lt;Path&gt;" class="shp0" d="M191.7 18.3L200.8 18.3L200.8 27.39L191.7 27.39L191.7 18.3Z" />
			<path id="&lt;Path&gt;" class="shp0" d="M209.89 18.3L218.99 18.3L218.99 27.39L209.89 27.39L209.89 18.3Z" />
			<path id="&lt;Path&gt;" class="shp0" d="M228.08 18.3L237.18 18.3L237.18 27.39L228.08 27.39L228.08 18.3Z" />
			<path id="&lt;Path&gt;" class="shp0" d="M46.19 154.72L55.29 154.72L55.29 163.81L46.19 163.81L46.19 154.72Z" />
			<path id="&lt;Path&gt;" class="shp0" d="M64.38 154.72L73.48 154.72L73.48 163.81L64.38 163.81L64.38 154.72Z" />
			<path id="&lt;Path&gt;" class="shp0" d="M82.57 154.72L91.66 154.72L91.66 163.81L82.57 163.81L82.57 154.72Z" />
			<path id="&lt;Path&gt;" class="shp0" d="M100.76 154.72L109.85 154.72L109.85 163.81L100.76 163.81L100.76 154.72Z" />
			<path id="&lt;Path&gt;" class="shp0" d="M118.95 154.72L128.04 154.72L128.04 163.81L118.95 163.81L118.95 154.72Z" />
			<path id="&lt;Path&gt;" class="shp0" d="M137.14 154.72L146.23 154.72L146.23 163.81L137.14 163.81L137.14 154.72Z" />
			<path id="&lt;Path&gt;" class="shp0" d="M155.33 154.72L164.42 154.72L164.42 163.81L155.33 163.81L155.33 154.72Z" />
			<path id="&lt;Path&gt;" class="shp0" d="M173.51 154.72L182.61 154.72L182.61 163.81L173.51 163.81L173.51 154.72Z" />
			<path id="&lt;Path&gt;" class="shp0" d="M191.7 154.72L200.8 154.72L200.8 163.81L191.7 163.81L191.7 154.72Z" />
			<path id="&lt;Path&gt;" class="shp0" d="M209.89 154.72L218.99 154.72L218.99 163.81L209.89 163.81L209.89 154.72Z" />
			<path id="&lt;Path&gt;" class="shp0" d="M228.08 154.72L237.18 154.72L237.18 163.81L228.08 163.81L228.08 154.72Z" />
			<path id="&lt;Compound Path&gt;" fill-rule="evenodd" class="shp0" d="M91.66 36.49L191.7 36.49C194.22 36.49 196.25 38.52 196.25 41.04L196.25 141.07C196.25 143.59 194.22 145.62 191.7 145.62L91.66 145.62C89.15 145.62 87.12 143.59 87.12 141.07L87.12 41.04C87.12 38.52 89.15 36.49 91.66 36.49ZM96.21 136.53L187.16 136.53L187.16 45.58L96.21 45.58L96.21 136.53Z" />
			<path id="&lt;Compound Path&gt;" fill-rule="evenodd" class="shp0" d="M178.06 91.06C178.06 111.15 161.78 127.43 141.68 127.43C121.59 127.43 105.31 111.15 105.31 91.06C105.31 70.96 121.59 54.68 141.68 54.68C161.77 54.7 178.04 70.97 178.06 91.06ZM168.97 91.06C168.97 75.99 156.75 63.77 141.68 63.77C126.62 63.77 114.4 75.99 114.4 91.06C114.4 106.12 126.62 118.34 141.68 118.34C156.75 118.32 168.95 106.12 168.97 91.06Z" />
			<path id="&lt;Compound Path&gt;" fill-rule="evenodd" class="shp0" d="M125.54 73.62C126.81 72.77 128.43 72.63 129.83 73.23L161.66 86.88C162.74 87.34 163.59 88.19 164.05 89.26C165.04 91.57 163.97 94.24 161.66 95.23L129.83 108.88C129.27 109.12 128.66 109.25 128.04 109.24C125.53 109.24 123.5 107.21 123.5 104.7L123.5 77.41C123.49 75.88 124.26 74.46 125.54 73.62ZM132.59 97.8L148.33 91.06L132.59 84.31L132.59 97.8Z" />
		</g>
	</g>
</svg>