<svg version="1.2" baseProfile="tiny-ps" xmlns="http://www.w3.org/2000/svg" viewBox="0 0 927 959" width="927" height="959">
	<title>Layer 1</title>
	<style>
		tspan { white-space:pre }
		.shp0 { fill: #29a0cd } 
	</style>
	<g id="Layer 1">
		<g id="outline">
			<path id="&lt;Compound Path&gt;" fill-rule="evenodd" class="shp0" d="M719.15 638.08L658.69 738.83L661.16 741.3C669.52 749.65 674.5 760.79 675.16 772.59C676.63 799.06 656.37 821.71 629.9 823.18C628.57 847.59 609.07 867.08 584.67 868.4C583.32 892.82 563.82 912.31 539.41 913.66C538.75 925.46 533.77 936.6 525.42 944.95C506.67 963.7 476.27 963.71 457.52 944.96L414.94 902.36C414.05 902.41 413.17 902.44 412.28 902.44C386.78 902.47 365.73 882.5 364.42 857.04C352.61 856.44 341.45 851.49 333.08 843.13C324.74 834.78 319.79 823.64 319.17 811.86C294.71 810.57 275.17 791 273.91 766.53C262.1 765.94 250.94 760.98 242.57 752.62C232.74 742.78 227.68 729.16 228.7 715.29C227.31 712.88 226.58 710.14 226.58 707.36L226.58 654.03C220.51 656.81 213.35 655.53 208.63 650.8L152.06 594.23L140.75 605.55C140.75 605.55 140.75 605.55 140.75 605.55C134.5 611.8 124.37 611.79 118.12 605.55L4.98 492.41C4.98 492.41 4.98 492.41 4.98 492.41C-1.27 486.16 -1.26 476.03 4.98 469.78L186 288.76C186 288.76 186 288.76 186 288.76C192.25 282.51 202.38 282.51 208.63 288.76L427.06 507.19L538.78 456.41L717.75 277.45C717.75 277.45 717.75 277.44 717.75 277.44C724 271.2 734.13 271.2 740.38 277.45L921.4 458.47C921.4 458.47 921.4 458.47 921.4 458.47C927.64 464.71 927.64 474.85 921.4 481.09L808.26 594.23C808.26 594.23 808.26 594.23 808.26 594.23C802.01 600.48 791.88 600.48 785.63 594.23L774.32 582.92L719.15 638.08ZM638.55 401.9L796.95 560.3L887.46 469.79L729.06 311.39L638.55 401.9ZM384.01 588.57C374.65 597.94 374.65 613.13 384.01 622.51C393.38 631.88 408.57 631.88 417.94 622.51L468.85 571.6C474.98 565.46 484.87 565.33 491.16 571.3L491.56 571.68L491.64 571.76C510.41 590.36 540.68 590.29 559.36 571.6L593.3 537.66L544.57 488.93L432.85 539.71L384.01 588.57ZM287.83 413.2L197.32 322.69L38.92 481.09L129.43 571.6L287.83 413.2ZM355.72 481.09L310.46 435.84L174.7 571.6L219.94 616.86L355.72 481.09ZM638.54 786.57C644.78 780.32 644.78 770.2 638.55 763.95L480.16 605.56L440.56 645.16C418.69 667.03 383.23 667.03 361.36 645.16C339.49 623.29 339.49 587.83 361.36 565.96L400.96 526.36L378.33 503.73L258.57 623.49L258.57 668.73L265.19 662.11C273.56 653.7 284.75 648.7 296.59 648.07C323.02 646.67 345.58 666.95 346.99 693.38C371.46 694.7 391 714.24 392.32 738.71C416.76 739.97 436.28 759.52 437.51 783.96C449.37 784.57 460.59 789.58 468.97 797.99C487.65 816.74 487.59 847.08 468.85 865.76L446.21 888.38L480.15 922.32C486.4 928.57 496.54 928.56 502.78 922.3C509.02 916.04 509.01 905.91 502.76 899.67C496.73 893.45 496.75 883.57 502.78 877.37C508.95 871.04 519.08 870.9 525.41 877.07C531.66 883.31 541.79 883.31 548.04 877.07C548.04 877.06 548.05 877.05 548.06 877.05C554.29 870.81 554.29 860.71 548.06 854.48C541.8 848.23 541.79 838.1 548.03 831.85C554.27 825.59 564.4 825.57 570.66 831.82L570.69 831.85C576.93 838.1 587.06 838.11 593.32 831.87C599.58 825.62 599.59 815.49 593.34 809.23L593.3 809.19C587.05 802.94 587.06 792.81 593.31 786.57C599.56 780.32 609.69 780.32 615.94 786.57C615.94 786.57 615.94 786.58 615.94 786.58C622.18 792.82 632.3 792.81 638.54 786.57L638.54 786.57ZM321.77 779.94C326.01 779.95 330.09 778.26 333.08 775.25L355.71 752.62C355.79 752.54 355.88 752.45 355.96 752.37C362.14 746.05 362.03 735.92 355.71 729.74C349.39 723.56 339.26 723.68 333.08 729.99L310.45 752.62C307.45 755.62 305.77 759.69 305.77 763.94C305.77 772.77 312.93 779.94 321.77 779.94L321.77 779.94ZM367.02 825.19C371.27 825.2 375.34 823.51 378.34 820.5L400.96 797.88C401.01 797.83 401.06 797.78 401.1 797.74C407.31 791.45 407.25 781.32 400.96 775.11C394.68 768.9 384.54 768.96 378.34 775.25L355.71 797.88C352.71 800.88 351.02 804.95 351.02 809.19C351.02 818.03 358.19 825.19 367.02 825.19L367.02 825.19ZM412.28 870.45C416.52 870.46 420.6 868.77 423.59 865.76L446.22 843.13C446.26 843.09 446.31 843.04 446.36 842.99C452.57 836.71 452.5 826.58 446.22 820.37C439.93 814.16 429.8 814.22 423.59 820.5L400.96 843.13C397.96 846.13 396.28 850.2 396.28 854.44C396.28 863.28 403.44 870.44 412.28 870.45L412.28 870.45ZM276.51 734.68C280.76 734.69 284.83 733 287.83 729.99L310.46 707.36C316.48 701.15 316.48 691.27 310.45 685.06C304.29 678.73 294.16 678.58 287.83 684.74L265.2 707.37C262.2 710.37 260.51 714.44 260.51 718.68C260.51 727.52 267.68 734.68 276.51 734.68L276.51 734.68ZM686.3 630.66L615.92 560.29L581.98 594.23C569.77 606.5 553.88 614.45 536.74 616.86L635.38 715.51L686.3 630.66ZM706.44 605.55L751.7 560.29L615.92 424.52L570.67 469.78L706.44 605.55Z" />
			<path id="&lt;Compound Path&gt;" fill-rule="evenodd" class="shp0" d="M376.08 337.27C348.04 324.65 323.8 304.91 305.77 280C248.76 201.27 266.38 91.23 345.11 34.23C423.84 -22.78 533.88 -5.16 590.88 73.57C603.95 73.17 616.82 76.86 627.7 84.12L649.1 98.39L670.5 84.12C699.54 64.77 738.78 72.62 758.14 101.66C774.04 125.63 770.89 157.48 750.6 177.86L660.38 268.07C660.38 268.07 660.38 268.08 660.38 268.08C654.13 274.32 644 274.32 637.75 268.07L611.75 242.06C594.8 284.42 562.09 318.55 520.5 337.3L461.61 425.64C460.44 427.39 458.93 428.9 457.17 430.07C449.82 434.97 439.89 432.99 434.99 425.64L376.08 337.27L376.08 337.27ZM472.89 351.03C456.57 353.33 440.02 353.33 423.71 351.03L448.3 387.92L472.89 351.03ZM477.61 254.49C485.98 234.87 491.11 214.02 492.81 192.76L403.81 192.76C405.5 214.03 410.63 234.88 419.01 254.5L447.42 320.74C447.71 320.74 448.01 320.76 448.3 320.76C448.59 320.76 448.88 320.74 449.17 320.74L477.61 254.49ZM504.07 309.56C544.15 292.7 574.47 258.67 586.62 216.92L562.45 192.76L524.87 192.76C523.12 218.36 517.08 243.49 507.01 267.09L486.16 315.69C492.11 314.08 497.95 312.09 503.64 309.73L504.07 309.56L504.07 309.56ZM566.63 119.41C559.16 130.67 560.64 145.65 570.18 155.23L649.08 234.13L727.98 155.23C737.52 145.65 739.01 130.67 731.53 119.41C721.96 105.06 702.58 101.18 688.24 110.75L657.96 130.93C652.58 134.52 645.58 134.52 640.21 130.93L609.93 110.75C595.57 101.21 576.21 105.08 566.63 119.41ZM486.14 37.79L507 86.42C517.08 110.02 523.12 135.15 524.87 160.76L535.58 160.76C526.66 141.63 528.34 119.24 540.01 101.65C544.78 94.49 550.97 88.38 558.2 83.71C539.41 61.42 514.27 45.4 486.14 37.79ZM418.99 99.03C410.62 118.65 405.49 139.5 403.79 160.76L492.79 160.76C491.1 139.49 485.96 118.64 477.59 99.02L449.17 32.77C448.88 32.77 448.59 32.76 448.3 32.76C448 32.76 447.72 32.78 447.42 32.78L418.99 99.03ZM410.42 37.85L410.42 37.85C410.42 37.85 410.43 37.85 410.43 37.85L410.42 37.85ZM410.42 37.85C353.53 53.46 311.86 102.14 305.21 160.76L371.73 160.76C373.48 135.16 379.52 110.03 389.59 86.43L410.42 37.85ZM305.18 192.76C310.89 244.68 344.33 289.41 392.52 309.57L392.96 309.74C398.65 312.1 404.49 314.09 410.44 315.7L389.59 267.1C379.52 243.49 373.48 218.36 371.73 192.76L305.18 192.76Z" />
		</g>
	</g>
</svg>