<svg version="1.2" baseProfile="tiny-ps" xmlns="http://www.w3.org/2000/svg" viewBox="0 0 849 749" width="849" height="749">
	<title>Layer 1</title>
	<style>
		tspan { white-space:pre }
		.shp0 { fill: #29a0cd } 
	</style>
	<g id="Layer 1">
		<g id="&lt;Group&gt;">
			<path id="&lt;Path&gt;" class="shp0" d="M335.29 544.38C332.09 544.38 328.86 543.27 326.23 541.03L235.64 463.89C232.51 461.23 230.72 457.34 230.72 453.23C230.72 449.13 232.52 445.23 235.64 442.57L326.23 365.43C332.11 360.41 340.95 361.13 345.97 367.01C350.97 372.9 350.27 381.73 344.38 386.74L266.31 453.23L344.38 519.71C350.27 524.73 350.97 533.56 345.97 539.45C343.19 542.7 339.25 544.38 335.29 544.38Z" />
			<path id="&lt;Path&gt;" class="shp0" d="M514.14 544.38C510.18 544.38 506.24 542.7 503.47 539.45C498.46 533.56 499.17 524.73 505.05 519.71L583.12 453.23L505.05 386.74C499.17 381.73 498.46 372.9 503.47 367.01C508.48 361.13 517.32 360.41 523.2 365.43L613.79 442.57C616.92 445.23 618.72 449.13 618.72 453.23C618.72 457.34 616.92 461.23 613.79 463.89L523.2 541.03C520.57 543.27 517.34 544.38 514.14 544.38Z" />
			<path id="&lt;Path&gt;" class="shp0" d="M392.64 602.23C391.68 602.23 390.72 602.13 389.74 601.93C382.18 600.34 377.33 592.91 378.93 585.34L435.39 317.27C436.98 309.71 444.4 304.87 451.97 306.46C459.54 308.06 464.38 315.48 462.79 323.05L406.32 591.12C404.93 597.71 399.12 602.23 392.64 602.23Z" />
			<path id="&lt;Compound Path&gt;" fill-rule="evenodd" class="shp0" d="M754.72 748.28L94.72 748.28C42.89 748.28 0.72 706.12 0.72 654.28L0.72 94.11C0.72 42.28 42.89 0.11 94.72 0.11L754.72 0.11C806.54 0.11 848.72 42.28 848.72 94.11L848.72 654.28C848.72 706.12 806.54 748.28 754.72 748.28ZM94.72 28.11C58.32 28.11 28.72 57.72 28.72 94.11L28.72 654.28C28.72 690.67 58.32 720.28 94.72 720.28L754.72 720.28C791.11 720.28 820.72 690.67 820.72 654.28L820.72 94.11C820.72 57.72 791.11 28.11 754.72 28.11L94.72 28.11Z" />
			<path id="&lt;Path&gt;" class="shp0" d="M834.72 224.29L14.72 224.29C6.98 224.29 0.72 218.02 0.72 210.29C0.72 202.56 6.98 196.29 14.72 196.29L834.72 196.29C842.45 196.29 848.72 202.56 848.72 210.29C848.72 218.02 842.45 224.29 834.72 224.29Z" />
			<path id="&lt;Compound Path&gt;" fill-rule="evenodd" class="shp0" d="M239.92 157.3C215.5 157.3 195.61 137.41 195.61 112.99C195.61 88.56 215.5 68.69 239.92 68.69C264.35 68.69 284.22 88.56 284.22 112.99C284.22 137.41 264.35 157.3 239.92 157.3ZM239.92 96.69C230.93 96.69 223.61 104 223.61 112.99C223.61 121.98 230.93 129.3 239.92 129.3C248.91 129.3 256.22 121.98 256.22 112.99C256.22 104 248.91 96.69 239.92 96.69Z" />
			<path id="&lt;Compound Path&gt;" fill-rule="evenodd" class="shp0" d="M103.79 156.87C79.36 156.87 59.49 136.99 59.49 112.56C59.49 88.13 79.36 68.26 103.79 68.26C128.22 68.26 148.1 88.13 148.1 112.56C148.1 136.99 128.22 156.87 103.79 156.87ZM103.79 96.26C94.81 96.26 87.49 103.58 87.49 112.56C87.49 121.55 94.81 128.87 103.79 128.87C112.79 128.87 120.1 121.55 120.1 112.56C120.1 103.58 112.79 96.26 103.79 96.26Z" />
			<path id="&lt;Compound Path&gt;" fill-rule="evenodd" class="shp0" d="M376.04 157.72C351.62 157.72 331.75 137.84 331.75 113.41C331.75 88.99 351.62 69.12 376.04 69.12C400.47 69.12 420.35 88.99 420.35 113.41C420.35 137.84 400.47 157.72 376.04 157.72ZM376.04 97.11C367.06 97.11 359.75 104.42 359.75 113.41C359.75 122.41 367.06 129.72 376.04 129.72C385.04 129.72 392.35 122.41 392.35 113.41C392.35 104.42 385.04 97.11 376.04 97.11Z" />
		</g>
	</g>
</svg>