<svg version="1.2" baseProfile="tiny-ps" xmlns="http://www.w3.org/2000/svg" viewBox="0 0 350 350" width="350" height="350">
	<title>Layer 1</title>
	<style>
		tspan { white-space:pre }
		.shp0 { fill: #29a0cd } 
	</style>
	<g id="Layer 1">
		<g id="&lt;Group&gt;">
			<g id="&lt;Group&gt;">
				<path id="&lt;Path&gt;" class="shp0" d="M58.17 299.75C55.35 299.75 53.06 302.04 53.06 304.86C53.06 307.68 55.35 309.97 58.17 309.97L152.24 309.97C155.06 309.97 157.35 307.68 157.35 304.86C157.35 302.04 155.06 299.75 152.24 299.75L58.17 299.75Z" />
				<path id="&lt;Compound Path&gt;" fill-rule="evenodd" class="shp0" d="M197.39 204.65C197.39 199.9 201.24 196.04 205.98 196.04L306.84 196.04C311.58 196.04 315.43 199.9 315.43 204.65L315.43 301.36C315.43 306.11 311.58 309.97 306.84 309.97L205.98 309.97C201.24 309.97 197.39 306.11 197.39 301.36L197.39 204.65ZM305.21 240.83L279.5 240.83L279.5 265.17L305.21 265.17L305.21 240.83ZM243.55 265.17L269.27 265.17L269.27 240.83L243.55 240.83L243.55 265.17ZM243.55 299.75L269.27 299.75L269.27 275.39L243.55 275.39L243.55 299.75ZM269.27 206.27L243.55 206.27L243.55 230.6L269.27 230.6L269.27 206.27ZM233.32 240.83L207.61 240.83L207.61 265.17L233.32 265.17L233.32 240.83ZM207.61 299.75L233.32 299.75L233.32 275.39L207.61 275.39L207.61 299.75ZM305.21 299.75L305.21 275.39L279.5 275.39L279.5 299.75L305.21 299.75ZM305.21 206.27L279.5 206.27L279.5 230.6L305.21 230.6L305.21 206.27ZM207.61 206.27L207.61 230.6L233.32 230.6L233.32 206.27L207.61 206.27Z" />
				<path id="&lt;Path&gt;" class="shp0" d="M202.5 151.69L247.38 151.69C250.2 151.69 252.49 149.4 252.49 146.58C252.49 143.76 250.2 141.47 247.38 141.47L202.5 141.47C199.68 141.47 197.39 143.76 197.39 146.58C197.39 149.4 199.68 151.69 202.5 151.69Z" />
				<path id="&lt;Path&gt;" class="shp0" d="M202.5 176.34L292.25 176.34C295.08 176.34 297.37 174.05 297.37 171.23C297.37 168.41 295.08 166.12 292.25 166.12L202.5 166.12C199.68 166.12 197.39 168.41 197.39 171.23C197.39 174.05 199.68 176.34 202.5 176.34Z" />
				<path id="&lt;Compound Path&gt;" fill-rule="evenodd" class="shp0" d="M173.36 198.31C172.56 200.18 171.73 201.84 170.92 203.44C168.74 207.8 167.01 211.24 167.01 216.92C167.01 222.61 168.74 226.06 170.93 230.42C171.73 232.02 172.56 233.68 173.36 235.54C174.36 237.9 173.47 240.63 171.28 241.94C169.54 242.98 167.9 243.82 166.32 244.64C161.99 246.88 158.56 248.65 155.21 253.25C151.88 257.85 151.25 261.64 150.45 266.44C150.16 268.22 149.85 270.05 149.39 272.04C148.82 274.53 146.51 276.22 143.96 275.99C141.93 275.81 140.1 275.53 138.32 275.26C133.51 274.53 129.72 273.95 124.3 275.72C118.9 277.47 116.17 280.17 112.71 283.58C111.42 284.85 110.1 286.16 108.55 287.5C107.59 288.34 106.39 288.76 105.2 288.76C104 288.76 102.8 288.34 101.84 287.5C100.31 286.16 98.99 284.86 97.72 283.6C94.26 280.18 91.52 277.47 86.1 275.72C80.69 273.95 76.9 274.53 72.09 275.26C70.31 275.53 68.47 275.81 66.43 275.99C63.89 276.21 61.57 274.52 61 272.03C60.55 270.06 60.25 268.23 59.96 266.47C59.17 261.66 58.54 257.86 55.2 253.24C51.85 248.65 48.43 246.88 44.09 244.64C42.51 243.82 40.87 242.97 39.14 241.94C36.94 240.63 36.05 237.9 37.05 235.54C37.85 233.68 38.68 232.02 39.49 230.42C41.68 226.06 43.41 222.61 43.41 216.92C43.41 211.24 41.68 207.8 39.49 203.44C38.68 201.84 37.85 200.18 37.05 198.31C36.05 195.96 36.94 193.23 39.14 191.92C40.87 190.88 42.5 190.04 44.08 189.22C48.42 186.98 51.85 185.21 55.2 180.59C58.55 175.99 59.17 172.18 59.96 167.37C60.25 165.61 60.55 163.78 61 161.81C61.56 159.31 63.9 157.62 66.44 157.85C68.46 158.03 70.28 158.31 72.04 158.58C76.87 159.31 80.68 159.9 86.1 158.14C91.52 156.38 94.26 153.68 97.72 150.25C98.99 148.99 100.31 147.69 101.83 146.36C103.76 144.68 106.62 144.68 108.55 146.35C110.09 147.7 111.42 149.01 112.7 150.27C116.17 153.69 118.9 156.39 124.29 158.14C129.73 159.9 133.54 159.32 138.37 158.58C140.13 158.31 141.94 158.03 143.95 157.85C146.5 157.62 148.82 159.3 149.39 161.79C149.85 163.79 150.15 165.62 150.45 167.4C151.24 172.2 151.87 176 155.21 180.59C158.56 185.21 161.99 186.98 166.33 189.22C167.91 190.04 169.54 190.88 171.27 191.92C173.47 193.23 174.36 195.96 173.36 198.31L173.36 198.31ZM161.79 235.01C159.33 230.11 156.78 225.04 156.78 216.92C156.78 208.82 159.33 203.75 161.79 198.86C161.85 198.73 161.91 198.61 161.97 198.48C161.86 198.42 161.75 198.37 161.64 198.31C156.76 195.79 151.71 193.18 146.94 186.6C142.18 180.06 141.26 174.47 140.36 169.07C140.34 168.92 140.31 168.78 140.29 168.63C140.16 168.65 140.04 168.67 139.91 168.69C134.49 169.51 128.88 170.37 121.14 167.86C113.44 165.36 109.42 161.39 105.52 157.55C105.41 157.44 105.31 157.34 105.2 157.23C105.1 157.33 105 157.42 104.91 157.52C101.01 161.38 96.98 165.36 89.25 167.86C81.53 170.37 75.92 169.51 70.5 168.69C70.37 168.67 70.24 168.65 70.11 168.63C70.09 168.76 70.07 168.89 70.04 169.03C69.16 174.44 68.24 180.04 63.47 186.6C58.69 193.18 53.65 195.79 48.77 198.31C48.66 198.36 48.55 198.42 48.43 198.48C48.5 198.6 48.56 198.73 48.62 198.85C51.08 203.75 53.63 208.82 53.63 216.92C53.63 225.04 51.08 230.11 48.62 235.01C48.56 235.13 48.5 235.25 48.43 235.38C48.55 235.44 48.67 235.5 48.78 235.56C53.65 238.07 58.69 240.68 63.47 247.24C68.24 253.81 69.16 259.41 70.04 264.81C70.07 264.95 70.09 265.08 70.11 265.22C70.26 265.2 70.41 265.17 70.55 265.15C73.26 264.74 76.01 264.32 79.05 264.32C82.09 264.32 85.41 264.74 89.26 266C96.98 268.5 101.01 272.48 104.91 276.34C105 276.43 105.1 276.53 105.2 276.63C105.31 276.52 105.42 276.41 105.52 276.31C109.42 272.46 113.44 268.49 121.14 265.99C128.85 263.48 134.45 264.33 139.86 265.15C140 265.17 140.15 265.2 140.29 265.22C140.31 265.07 140.34 264.92 140.36 264.77C141.26 259.38 142.18 253.8 146.94 247.24C151.71 240.68 156.75 238.07 161.63 235.56C161.74 235.5 161.86 235.44 161.97 235.38C161.91 235.25 161.85 235.13 161.79 235.01Z" />
				<path id="&lt;Compound Path&gt;" fill-rule="evenodd" class="shp0" d="M144.52 216.92C144.52 238.6 126.88 256.24 105.19 256.24C83.52 256.24 65.89 238.6 65.89 216.92C65.89 195.25 83.52 177.61 105.19 177.61C126.88 177.61 144.52 195.24 144.52 216.92ZM134.3 216.92C134.3 200.88 121.24 187.83 105.19 187.83C89.16 187.83 76.11 200.88 76.11 216.92C76.11 232.97 89.16 246.02 105.19 246.02C121.24 246.02 134.3 232.97 134.3 216.92Z" />
				<path id="&lt;Compound Path&gt;" fill-rule="evenodd" class="shp0" d="M337.3 34.69C343.83 34.69 349.14 39.99 349.14 46.51L349.14 110.78C349.14 115.47 346.39 119.51 342.42 121.42L342.42 325.41C342.42 338.69 331.62 349.5 318.35 349.5L185.58 349.5C182.75 349.5 180.47 347.21 180.47 344.38C180.47 341.56 182.75 339.27 185.58 339.27L318.35 339.27C325.98 339.27 332.19 333.06 332.19 325.41L332.19 122.6L187.24 122.6C184.42 122.6 182.13 120.31 182.13 117.48C182.13 114.66 184.42 112.37 187.24 112.37L337.3 112.37C338.19 112.37 338.92 111.66 338.92 110.78L338.92 97.79L10.43 97.79L10.43 110.78C10.43 111.64 11.16 112.37 12.02 112.37L161.93 112.37C164.76 112.37 167.04 114.66 167.04 117.48C167.04 120.31 164.76 122.6 161.93 122.6L17.13 122.6L17.13 325.41C17.13 333.06 23.35 339.27 30.99 339.27L162.57 339.27C165.39 339.27 167.68 341.56 167.68 344.38C167.68 347.21 165.39 349.5 162.57 349.5L30.99 349.5C17.71 349.5 6.91 338.69 6.91 325.41L6.91 121.42C2.95 119.5 0.21 115.46 0.21 110.78L0.21 46.51C0.21 39.99 5.51 34.69 12.02 34.69L35.02 34.69L35.02 21.06C35.02 9.76 44.23 0.55 55.55 0.55C66.85 0.55 76.05 9.76 76.05 21.06L76.05 34.69L114.46 34.69L114.46 21.06C114.46 9.76 123.66 0.55 134.96 0.55C146.27 0.55 155.47 9.76 155.47 21.06L155.47 34.69L193.87 34.69L193.87 21.06C193.87 9.76 203.07 0.55 214.38 0.55C225.69 0.55 234.89 9.76 234.89 21.06L234.89 34.69L273.29 34.69L273.29 21.06C273.29 9.76 282.49 0.55 293.8 0.55C305.11 0.55 314.31 9.76 314.31 21.06L314.31 34.69L337.3 34.69ZM283.51 53.91C283.51 59.58 288.13 64.19 293.8 64.19C299.47 64.19 304.09 59.58 304.09 53.91L304.09 21.06C304.09 15.39 299.47 10.78 293.8 10.78C288.13 10.78 283.51 15.39 283.51 21.06L283.51 53.91ZM204.1 53.91C204.1 59.58 208.71 64.19 214.38 64.19C220.05 64.19 224.67 59.58 224.67 53.91L224.67 21.06C224.67 15.39 220.05 10.78 214.38 10.78C208.71 10.78 204.1 15.39 204.1 21.06L204.1 53.91ZM124.68 53.91C124.68 59.58 129.29 64.19 134.96 64.19C140.64 64.19 145.25 59.58 145.25 53.91L145.25 21.06C145.25 15.39 140.64 10.78 134.96 10.78C129.29 10.78 124.68 15.39 124.68 21.06L124.68 53.91ZM45.24 53.91C45.24 59.58 49.86 64.19 55.55 64.19C61.22 64.19 65.83 59.58 65.83 53.91L65.83 21.06C65.83 15.39 61.22 10.78 55.55 10.78C49.86 10.78 45.24 15.39 45.24 21.06L45.24 53.91ZM10.43 87.57L338.92 87.57L338.92 46.51C338.92 45.63 338.19 44.91 337.31 44.91L314.31 44.91L314.31 53.91C314.31 65.21 305.11 74.41 293.8 74.41C282.49 74.41 273.29 65.21 273.29 53.91L273.29 44.91L234.89 44.91L234.89 53.91C234.89 65.21 225.69 74.41 214.38 74.41C203.07 74.41 193.87 65.21 193.87 53.91L193.87 44.91L155.47 44.91L155.47 53.91C155.47 65.21 146.27 74.41 134.96 74.41C123.66 74.41 114.46 65.21 114.46 53.91L114.46 44.91L76.05 44.91L76.05 53.91C76.05 65.21 66.86 74.41 55.55 74.41C44.23 74.41 35.02 65.21 35.02 53.91L35.02 44.91L12.02 44.91C11.16 44.91 10.43 45.64 10.43 46.51L10.43 87.57Z" />
			</g>
		</g>
	</g>
</svg>