<svg version="1.2" baseProfile="tiny-ps" xmlns="http://www.w3.org/2000/svg" viewBox="0 0 1025 1025" width="1025" height="1025">
	<title>Layer 1</title>
	<style>
		tspan { white-space:pre }
		.shp0 { fill: #29a0cd } 
	</style>
	<g id="Layer 1">
		<g id="&lt;Group&gt;">
			<g id="&lt;Group&gt;">
				<g id="&lt;Group&gt;">
					<path id="&lt;Compound Path&gt;" fill-rule="evenodd" class="shp0" d="M875.38 213.62C816.59 213.62 768.72 165.79 768.72 106.95C768.72 48.11 816.59 0.28 875.38 0.28C934.18 0.28 982.05 48.11 982.05 106.95C982.05 165.79 934.18 213.62 875.38 213.62ZM875.38 42.95C840.1 42.95 811.38 71.67 811.38 106.95C811.38 142.24 840.1 170.95 875.38 170.95C910.67 170.95 939.38 142.24 939.38 106.95C939.38 71.67 910.67 42.95 875.38 42.95Z" />
				</g>
				<g id="&lt;Group&gt;">
					<path id="&lt;Path&gt;" class="shp0" d="M1003.38 256.28C997.92 256.28 992.46 254.19 988.28 250.05L924.28 186.05C915.96 177.73 915.96 164.21 924.28 155.89C932.6 147.57 946.12 147.57 954.44 155.89L1018.44 219.89C1026.76 228.21 1026.76 241.73 1018.44 250.05C1014.3 254.19 1008.84 256.28 1003.38 256.28Z" />
				</g>
			</g>
			<g id="&lt;Group&gt;">
				<path id="&lt;Compound Path&gt;" fill-rule="evenodd" class="shp0" d="M619.38 256.28L64.72 256.28C29.43 256.28 0.72 227.57 0.72 192.28L0.72 64.28C0.72 29 29.43 0.28 64.72 0.28L619.38 0.28C654.67 0.28 683.38 29 683.38 64.28L683.38 192.28C683.38 227.57 654.67 256.28 619.38 256.28ZM64.72 42.95C52.94 42.95 43.38 52.55 43.38 64.28L43.38 192.28C43.38 204.02 52.94 213.62 64.72 213.62L619.38 213.62C631.16 213.62 640.72 204.02 640.72 192.28L640.72 64.28C640.72 52.55 631.16 42.95 619.38 42.95L64.72 42.95Z" />
			</g>
			<g id="&lt;Group&gt;">
				<path id="&lt;Compound Path&gt;" fill-rule="evenodd" class="shp0" d="M128.72 597.62C58.14 597.62 0.72 540.19 0.72 469.62C0.72 399.05 58.14 341.62 128.72 341.62C199.29 341.62 256.72 399.05 256.72 469.62C256.72 540.19 199.29 597.62 128.72 597.62ZM128.72 384.28C81.65 384.28 43.38 422.56 43.38 469.62C43.38 516.68 81.65 554.95 128.72 554.95C175.78 554.95 214.05 516.68 214.05 469.62C214.05 422.56 175.78 384.28 128.72 384.28Z" />
			</g>
			<g id="&lt;Group&gt;">
				<path id="&lt;Path&gt;" class="shp0" d="M235.38 853.62L22.05 853.62C10.27 853.62 0.72 844.06 0.72 832.28C0.72 820.51 10.27 810.95 22.05 810.95L235.38 810.95C247.16 810.95 256.72 820.51 256.72 832.28C256.72 844.06 247.16 853.62 235.38 853.62Z" />
			</g>
			<g id="&lt;Group&gt;">
				<path id="&lt;Path&gt;" class="shp0" d="M235.38 981.62L22.05 981.62C10.27 981.62 0.72 972.06 0.72 960.28C0.72 948.51 10.27 938.95 22.05 938.95L235.38 938.95C247.16 938.95 256.72 948.51 256.72 960.28C256.72 972.06 247.16 981.62 235.38 981.62Z" />
			</g>
			<g id="&lt;Group&gt;">
				<path id="&lt;Path&gt;" class="shp0" d="M235.38 725.62L22.05 725.62C10.27 725.62 0.72 716.06 0.72 704.28C0.72 692.51 10.27 682.95 22.05 682.95L235.38 682.95C247.16 682.95 256.72 692.51 256.72 704.28C256.72 716.06 247.16 725.62 235.38 725.62Z" />
			</g>
			<g id="&lt;Group&gt;">
				<path id="&lt;Compound Path&gt;" fill-rule="evenodd" class="shp0" d="M960.72 1024.28L406.05 1024.28C370.76 1024.28 342.05 995.57 342.05 960.28L342.05 405.62C342.05 370.33 370.76 341.62 406.05 341.62L960.72 341.62C996 341.62 1024.72 370.33 1024.72 405.62L1024.72 960.28C1024.72 995.57 996 1024.28 960.72 1024.28ZM406.05 384.28C394.27 384.28 384.72 393.88 384.72 405.62L384.72 960.28C384.72 972.02 394.27 981.62 406.05 981.62L960.72 981.62C972.49 981.62 982.05 972.02 982.05 960.28L982.05 405.62C982.05 393.88 972.49 384.28 960.72 384.28L406.05 384.28Z" />
			</g>
			<g id="&lt;Group&gt;">
				<path id="&lt;Compound Path&gt;" fill-rule="evenodd" class="shp0" d="M576.72 810.95C572.83 810.95 568.91 809.88 565.49 807.79C559.22 803.87 555.38 797 555.38 789.62L555.38 533.62C555.38 526.24 559.22 519.37 565.49 515.44C571.81 511.6 579.62 511.22 586.23 514.55L842.23 642.55C849.48 646.17 854.05 653.55 854.05 661.62C854.05 669.68 849.48 677.06 842.27 680.69L586.27 808.69C583.24 810.18 580 810.95 576.72 810.95L576.72 810.95ZM598.05 568.13L598.05 755.14L785.01 661.66L598.05 568.13Z" />
			</g>
		</g>
	</g>
</svg>