<svg version="1.2" baseProfile="tiny-ps" xmlns="http://www.w3.org/2000/svg" viewBox="0 0 1024 1024" width="1024" height="1024">
	<title>Layer 1</title>
	<style>
		tspan { white-space:pre }
		.shp0 { fill: #29a0cd } 
	</style>
	<g id="Layer 1">
		<g id="Page-1">
			<g id="035---Creative-Thinking">
				<path id="Shape" fill-rule="evenodd" class="shp0" d="M1002.8 817.53C1027.81 859.42 1028.56 911.47 1004.78 954.06C981.01 996.66 936.31 1023.34 887.53 1024.04L136.6 1024.04C62.66 1023.98 2.22 965.03 0.32 891.11C-1.59 817.2 55.73 755.21 129.57 751.34L3.58 447.41C-3.57 429.99 4.69 410.07 22.06 402.82L164.04 344.04C181.38 337.04 201.14 345.13 208.59 362.28L301.48 586.63C314.39 583.3 327.62 581.33 340.94 580.74L256.49 220.34C256.49 220.08 256.49 219.85 256.49 219.57C256.21 218.32 256.07 217.05 256.07 215.77L262.48 38.36C263.12 20.6 275.57 5.46 292.88 1.41C310.18 -2.64 328.06 5.39 336.52 21.02L421.07 177.16C421.58 178.21 421.98 179.32 422.26 180.46C422.36 180.78 422.7 181.04 422.7 181.39L505.48 535.36C518.49 523.93 532.75 514 547.97 505.75C546.1 465.38 547.09 424.93 550.94 384.71C553.18 360.39 556.42 335.42 560.55 309.05C550.22 297.49 541.99 284.21 536.25 269.8C521.23 232.14 530.48 189.13 559.65 160.97C624.57 89.34 632.18 54.5 623.39 21.5C621.5 14.4 624.36 6.89 630.5 2.85C636.64 -1.19 644.67 -0.85 650.44 3.7C654.28 6.72 744.17 78.55 754.84 178.02C759.5 227.42 744.25 276.64 712.48 314.75C714.65 370.84 711.69 427.02 703.64 482.57C724.9 486.98 745.43 494.39 764.6 504.59L803.67 410.16L803.67 409.97C819.3 376.43 829.01 340.44 832.36 303.59C832.58 295.01 837.11 287.12 844.4 282.6L964.91 207.39L965.08 207.39C965.34 207.23 965.65 207.18 965.9 207.05C968.77 205.46 972.03 204.73 975.31 204.95C975.7 204.98 976.04 205.24 976.43 205.24C977.8 205.4 979.14 205.72 980.43 206.21C981.35 206.66 982.24 207.2 983.07 207.81C983.72 208.15 984.34 208.52 984.93 208.94C985.83 209.79 986.64 210.73 987.34 211.76C987.68 212.2 988.28 212.78 988.41 213.02C988.55 213.26 988.6 213.56 988.74 213.82C989.49 215.11 990.06 216.5 990.44 217.95L1022.5 356.36C1024.45 364.69 1022.08 373.44 1016.2 379.66C992.56 408.02 973.99 440.25 961.33 474.92C961.34 475.05 961.34 475.17 961.33 475.3L883.16 663.94C888.85 692.66 888.99 722.2 883.57 750.98C932.35 750.27 977.8 775.64 1002.8 817.53ZM843.33 402.03C850.1 420.44 864.26 435.17 882.38 442.67C900.51 450.17 920.94 449.74 938.73 441.49C951.27 412.05 967.94 384.54 988.23 359.79L969.26 277.65L943.94 338.82C940.33 347.53 930.34 351.66 921.63 348.05C912.92 344.44 908.79 334.45 912.4 325.74L937.73 264.58L866.18 309.22C863.01 341.09 855.32 372.34 843.33 402.03ZM793.84 523.17C825.59 546.63 850.81 577.82 867.12 613.78L921.58 482.36C918.15 482.77 914.69 482.98 911.24 483C896.87 482.86 882.67 479.87 869.48 474.19C852.87 467.69 838.22 457.02 826.93 443.21L793.84 523.17ZM593.08 321.32C590.57 338.41 588.49 354.69 586.78 370.77C588.92 371.06 591.02 371.3 593.17 371.6C621.4 376.39 650.11 377.77 678.67 375.73C679.2 358.99 679.39 342.5 678.86 326.56L593.11 321.32L593.08 321.32ZM584.94 183.89C571.12 197.49 563.44 216.14 563.69 235.54C563.94 254.93 572.09 273.38 586.25 286.63C619.23 288.68 652.57 290.72 686.28 292.77C711.99 261.73 724.41 221.78 720.82 181.63C713.3 135.51 691.8 92.81 659.23 59.3C653.77 95.45 630.29 133.9 584.97 183.89L584.94 183.89ZM583.64 404.78C581.42 433.44 580.71 462.2 581.49 490.93C605.79 482.36 631.37 477.96 657.13 477.91C661.36 477.91 665.49 478.32 669.71 478.54C672.94 454.84 675.48 431.9 677.03 409.93C669.57 410.51 662.13 411.08 655.07 411.08C632.82 410.72 610.62 408.83 588.63 405.43L583.68 404.78L583.64 404.78ZM477.28 564.59L401.13 238.98C393.11 248.77 382.9 256.55 371.32 261.68L383.4 313.23C384.91 319.22 383.08 325.55 378.61 329.8C374.13 334.04 367.71 335.55 361.82 333.73C355.92 331.91 351.47 327.05 350.17 321.02L338.1 269.49C337.01 269.54 335.87 269.7 334.79 269.7C323.26 269.68 311.87 267.2 301.38 262.43L376.28 582.09C388.96 583.93 401.42 587.04 413.49 591.35L369.61 404.15C367.65 395.05 373.34 386.06 382.4 383.93C391.46 381.81 400.56 387.34 402.84 396.37L451.67 604.36C458.81 590.25 467.39 576.93 477.28 564.59ZM347.39 234.04C368.86 228.13 384.87 210.18 388.3 188.17L359.56 135.13C350.2 142.48 339.43 147.84 327.92 150.86C322.23 152.17 316.41 152.82 310.58 152.79C304.54 152.76 298.51 152.19 292.57 151.08L290.4 211.19C303.28 229.32 325.56 238.24 347.39 234.01L347.39 234.04ZM296.55 39.59L293.77 116.49C302.32 118.91 311.32 119.34 320.07 117.74C328.62 115.29 336.5 110.91 343.11 104.94L306.51 37.27C305.37 35.17 302.97 34.1 300.64 34.64C298.32 35.18 296.64 37.2 296.55 39.59ZM35.09 434.29L158.79 732.55C172.9 673.06 213.68 623.43 269.29 598.04L255.48 564.71L192.34 590.86C190.27 591.71 188.06 592.15 185.82 592.15C177.67 592.17 170.65 586.42 169.05 578.43C167.46 570.44 171.74 562.43 179.27 559.32L242.46 533.12L229.41 501.58L197.82 514.67C195.75 515.52 193.53 515.96 191.3 515.97C183.15 515.98 176.13 510.23 174.53 502.24C172.94 494.25 177.21 486.25 184.74 483.13L216.33 470.04L203.28 438.5L140.13 464.67C138.06 465.52 135.84 465.96 133.59 465.96C125.48 465.95 118.49 460.21 116.9 452.25C115.3 444.29 119.54 436.31 127.02 433.16L190.17 407.02L177.13 375.51L35.09 434.29ZM989.93 887.51C989.93 830.96 944.09 785.11 887.53 785.11C879.87 785.12 872.23 785.96 864.75 787.6C858.82 788.91 852.64 786.96 848.52 782.49C844.41 778.02 842.99 771.7 844.78 765.89C850.53 747.24 853.43 727.83 853.4 708.31C853.48 613.4 785.63 532.03 692.25 515.04C598.87 498.06 506.72 550.33 473.38 639.19C471.49 644.21 467.35 648.05 462.21 649.56C457.07 651.07 451.51 650.07 447.21 646.87C398.55 610.36 333.55 604.16 278.86 630.81C224.17 657.47 189.01 712.49 187.8 773.32C187.7 778.66 185.1 783.65 180.78 786.8C176.46 789.95 170.92 790.89 165.8 789.34C156.33 786.5 146.49 785.08 136.6 785.11C80.04 785.11 34.2 830.96 34.2 887.51C34.2 944.06 80.04 989.91 136.6 989.91L887.53 989.91C944.09 989.91 989.93 944.06 989.93 887.51Z" />
				<path id="Shape 1 " class="shp0" d="M660.29 267.99C665.65 268.01 670.7 265.51 673.94 261.25C695.25 232.41 703.48 195.96 696.64 160.76C695.19 154.74 690.58 149.98 684.62 148.33C678.65 146.67 672.26 148.38 667.91 152.78C663.56 157.19 661.94 163.61 663.67 169.55C667.75 194.56 661.66 220.17 646.74 240.65C642.86 245.82 642.24 252.74 645.13 258.52C648.02 264.3 653.93 267.96 660.39 267.96L660.29 267.99Z" />
				<path id="Shape 2 " class="shp0" d="M637.85 785.11C625.16 785.15 612.64 788.07 601.24 793.64C570.54 751.63 513.21 739.33 467.97 765.03C422.73 790.74 403.96 846.29 424.34 894.17C427.02 900.46 433.2 904.54 440.04 904.54C442.34 904.55 444.62 904.08 446.73 903.18C450.9 901.4 454.19 898.05 455.88 893.85C457.57 889.65 457.52 884.95 455.75 880.79C452.03 872.13 450.11 862.8 450.11 853.38C450.11 815.67 480.68 785.11 518.38 785.11C544.86 784.98 568.98 800.32 580.08 824.36C580.45 824.92 580.84 825.46 581.27 825.97C581.54 826.55 581.84 827.12 582.18 827.67C582.48 828.05 582.93 828.22 583.27 828.58C584.07 829.41 584.95 830.15 585.91 830.8C586.77 831.45 587.68 832.03 588.64 832.5C589.63 832.92 590.66 833.24 591.72 833.46C592.76 833.74 593.84 833.9 594.92 833.96C597.14 833.94 599.34 833.57 601.44 832.86C601.9 832.78 602.35 832.67 602.79 832.54C603.35 832.18 603.88 831.79 604.38 831.36C604.99 831.09 605.59 830.78 606.17 830.44C615.14 823.19 626.32 819.24 637.85 819.24C657.8 819.28 675.92 830.9 684.27 849.03C688.18 857.6 698.3 861.38 706.88 857.47C715.46 853.56 719.24 843.44 715.33 834.86C701.43 804.57 671.17 785.14 637.85 785.11Z" />
				<path id="Shape 3 " class="shp0" d="M301.87 666.51C299.3 667.35 239 688.21 239 750.98C239 760.4 246.64 768.04 256.07 768.04C265.49 768.04 273.13 760.4 273.13 750.98C274.53 727.17 290.19 706.57 312.76 698.87C321.72 695.87 326.54 686.17 323.53 677.22C320.52 668.26 310.83 663.44 301.87 666.45L301.87 666.51Z" />
				<path id="Shape 4 " class="shp0" d="M542.05 648.07C543.41 648.41 544.8 648.58 546.2 648.58C554.02 648.57 560.84 643.25 562.74 635.66C570.59 603.79 598.8 581.12 631.62 580.31C641.04 580.29 648.66 572.63 648.64 563.2C648.62 553.78 640.96 546.15 631.53 546.18C583.02 546.82 541.1 580.22 529.64 627.36C527.35 636.51 532.91 645.77 542.05 648.07Z" />
			</g>
		</g>
	</g>
</svg>