<svg version="1.2" baseProfile="tiny-ps" xmlns="http://www.w3.org/2000/svg" viewBox="0 0 961 977" width="961" height="977">
	<title>Layer 1</title>
	<style>
		tspan { white-space:pre }
		.shp0 { fill: #29a0cd } 
	</style>
	<g id="Layer 1">
		<g id="&lt;Group&gt;">
			<path id="&lt;Compound Path&gt;" fill-rule="evenodd" class="shp0" d="M576.44 864.19L576.44 896.19C576.44 940.37 540.62 976.19 496.44 976.19L80.44 976.19C36.26 976.19 0.44 940.37 0.44 896.19L0.44 864.19C0.44 855.35 7.6 848.19 16.44 848.19L48.44 848.19L48.44 512.19C48.44 503.35 55.6 496.19 64.44 496.19L213.56 496.19C222.4 496.19 229.56 503.35 229.56 512.19C229.56 521.02 222.4 528.19 213.56 528.19L80.44 528.19L80.44 848.19L496.44 848.19L496.44 691.39C496.44 682.55 503.6 675.39 512.44 675.39C521.28 675.39 528.44 682.55 528.44 691.39L528.44 848.19L560.44 848.19C569.28 848.19 576.44 855.35 576.44 864.19ZM544.44 880.19L32.44 880.19L32.44 896.19C32.44 922.7 53.93 944.19 80.44 944.19L112.44 944.19L112.44 928.19C112.44 919.35 119.6 912.19 128.44 912.19C137.28 912.19 144.44 919.35 144.44 928.19L144.44 944.19L432.44 944.19L432.44 928.19C432.44 919.35 439.6 912.19 448.44 912.19C457.28 912.19 464.44 919.35 464.44 928.19L464.44 944.19L496.44 944.19C522.95 944.19 544.44 922.7 544.44 896.19L544.44 880.19Z" />
			<path id="&lt;Path&gt;" class="shp0" d="M832.44 112.19L864.44 112.19C873.28 112.19 880.44 105.02 880.44 96.19C880.44 87.35 873.28 80.19 864.44 80.19L832.44 80.19C805.93 80.19 784.44 101.68 784.44 128.19L784.44 144.19L768.44 144.19C759.6 144.19 752.44 151.35 752.44 160.19C752.44 169.02 759.6 176.19 768.44 176.19L784.44 176.19L784.44 224.19C784.44 233.02 791.6 240.19 800.44 240.19C809.28 240.19 816.44 233.02 816.44 224.19L816.44 176.19L832.44 176.19C841.28 176.19 848.44 169.02 848.44 160.19C848.44 151.35 841.28 144.19 832.44 144.19L816.44 144.19L816.44 128.19C816.44 119.35 823.6 112.19 832.44 112.19Z" />
			<path id="&lt;Path&gt;" class="shp0" d="M912.44 16.19L720.44 16.19C693.93 16.19 672.44 37.68 672.44 64.19L672.44 96.19C672.44 105.02 679.6 112.19 688.44 112.19C697.28 112.19 704.44 105.02 704.44 96.19L704.44 64.19C704.44 55.35 711.6 48.19 720.44 48.19L912.44 48.19C921.28 48.19 928.44 55.35 928.44 64.19L928.44 256.19C928.44 265.02 921.28 272.19 912.44 272.19L720.44 272.19C711.6 272.19 704.44 265.02 704.44 256.19L704.44 160.19C704.44 151.35 697.28 144.19 688.44 144.19C679.6 144.19 672.44 151.35 672.44 160.19L672.44 256.19C672.44 282.7 693.93 304.19 720.44 304.19L912.44 304.19C938.95 304.19 960.44 282.7 960.44 256.19L960.44 64.19C960.44 37.68 938.95 16.19 912.44 16.19Z" />
			<path id="&lt;Compound Path&gt;" fill-rule="evenodd" class="shp0" d="M816.44 592.19C851.79 592.19 880.44 620.84 880.44 656.19C880.44 691.53 851.79 720.19 816.44 720.19C781.09 720.19 752.44 691.53 752.44 656.19C752.44 620.84 781.09 592.19 816.44 592.19ZM816.44 624.19C798.77 624.19 784.44 638.51 784.44 656.19C784.44 673.86 798.77 688.19 816.44 688.19C834.11 688.19 848.44 673.86 848.44 656.19C848.44 638.51 834.11 624.19 816.44 624.19Z" />
			<path id="&lt;Path&gt;" class="shp0" d="M912.44 512.19L720.44 512.19C693.93 512.19 672.44 533.68 672.44 560.19L672.44 752.19C672.44 778.69 693.93 800.19 720.44 800.19L912.44 800.19C938.95 800.19 960.44 778.69 960.44 752.19L960.44 720.19C960.44 711.35 953.28 704.19 944.44 704.19C935.6 704.19 928.44 711.35 928.44 720.19L928.44 752.19C928.44 761.02 921.28 768.19 912.44 768.19L720.44 768.19C711.6 768.19 704.44 761.02 704.44 752.19L704.44 560.19C704.44 551.35 711.6 544.19 720.44 544.19L912.44 544.19C921.28 544.19 928.44 551.35 928.44 560.19L928.44 656.19C928.44 665.02 935.6 672.19 944.44 672.19C953.28 672.19 960.44 665.02 960.44 656.19L960.44 560.19C960.44 533.68 938.95 512.19 912.44 512.19Z" />
			<path id="&lt;Compound Path&gt;" fill-rule="evenodd" class="shp0" d="M352.44 192.19L352.44 96.19C352.45 93.7 353.03 91.25 354.15 89.03C358.13 81.14 367.75 77.97 375.64 81.95L471.64 129.95C474.63 131.47 477.06 133.9 478.59 136.89C482.61 144.75 479.51 154.4 471.64 158.43L375.64 206.43C373.41 207.57 370.95 208.17 368.44 208.19C365.45 208.19 362.51 207.36 359.96 205.79C355.27 202.86 352.43 197.71 352.44 192.19ZM384.44 166.27L428.6 144.19L384.44 122.11L384.44 166.27Z" />
			<path id="&lt;Compound Path&gt;" fill-rule="evenodd" class="shp0" d="M256.44 144.19C256.44 64.66 320.91 0.19 400.44 0.19C479.97 0.19 544.44 64.66 544.44 144.19C544.44 223.71 479.97 288.19 400.44 288.19C320.91 288.19 256.44 223.71 256.44 144.19ZM288.44 144.19C288.44 206.04 338.58 256.19 400.44 256.19C462.3 256.19 512.44 206.04 512.44 144.19C512.44 82.33 462.3 32.19 400.44 32.19C338.58 32.19 288.44 82.33 288.44 144.19Z" />
			<path id="&lt;Path&gt;" class="shp0" d="M560.44 352.19C565.48 352.19 570.22 349.81 573.24 345.79L621.24 281.79C626.54 274.71 625.1 264.68 618.02 259.39C610.96 254.1 600.94 255.53 595.64 262.59L547.64 326.59C542.34 333.65 543.77 343.68 550.84 348.99C553.61 351.06 556.98 352.19 560.44 352.19Z" />
			<path id="&lt;Path&gt;" class="shp0" d="M595.64 409.79C598.66 413.81 603.4 416.19 608.44 416.19C611.9 416.19 615.27 415.06 618.04 412.99L682.04 364.99C689.11 359.68 690.54 349.65 685.24 342.59C679.94 335.52 669.91 334.08 662.84 339.39L598.84 387.39C591.77 392.69 590.34 402.72 595.64 409.79L595.64 409.79Z" />
			<path id="&lt;Path&gt;" class="shp0" d="M752.44 444.99C750.88 436.29 742.57 430.5 733.87 432.06C733.66 432.1 733.45 432.14 733.24 432.19L653.24 448.19C644.4 449.07 637.96 456.95 638.84 465.79C639.72 474.62 647.6 481.07 656.44 480.19L659.64 480.19L739.64 464.19C748.34 462.63 754.13 454.31 752.57 445.61C752.53 445.4 752.49 445.19 752.44 444.99Z" />
			<path id="&lt;Compound Path&gt;" fill-rule="evenodd" class="shp0" d="M0.44 432.19L0.44 176.19C0.44 167.35 7.6 160.19 16.44 160.19L208.44 160.19C217.28 160.19 224.44 167.35 224.44 176.19L224.44 432.19C224.44 441.02 217.28 448.19 208.44 448.19L16.44 448.19C7.6 448.19 0.44 441.02 0.44 432.19ZM32.44 416.19L192.44 416.19L192.44 192.19L32.44 192.19L32.44 416.19Z" />
			<path id="&lt;Path&gt;" class="shp0" d="M144.44 224.19L112.44 224.19C103.6 224.19 96.44 231.35 96.44 240.19C96.44 249.02 103.6 256.19 112.44 256.19L144.44 256.19C153.28 256.19 160.44 249.02 160.44 240.19C160.44 231.35 153.28 224.19 144.44 224.19Z" />
			<path id="&lt;Path&gt;" class="shp0" d="M144.44 288.19L80.44 288.19C71.6 288.19 64.44 295.35 64.44 304.19C64.44 313.02 71.6 320.19 80.44 320.19L144.44 320.19C153.28 320.19 160.44 313.02 160.44 304.19C160.44 295.35 153.28 288.19 144.44 288.19Z" />
			<path id="&lt;Path&gt;" class="shp0" d="M144.44 352.19L80.44 352.19C71.6 352.19 64.44 359.35 64.44 368.19C64.44 377.02 71.6 384.19 80.44 384.19L144.44 384.19C153.28 384.19 160.44 377.02 160.44 368.19C160.44 359.35 153.28 352.19 144.44 352.19Z" />
			<path id="&lt;Compound Path&gt;" fill-rule="evenodd" class="shp0" d="M626.04 581.63C628.33 585.68 628.74 590.53 627.16 594.91C625.58 599.34 622.13 602.85 617.72 604.51L377.72 694.59L406.84 745.31C406.85 745.32 406.86 745.34 406.87 745.35C420.1 768.32 412.21 797.67 389.24 810.91C366.3 824.07 337.04 816.2 323.8 793.31L291.8 737.79L277.88 745.79C268.18 751.47 257.13 754.45 245.88 754.43C240.2 754.47 234.55 753.71 229.08 752.19C218.43 749.23 208.77 743.49 201.08 735.55L185.08 744.67C177.76 748.83 169.5 751.03 161.08 751.07C156.87 751.08 152.67 750.54 148.6 749.47C136.25 746.17 125.73 738.08 119.36 726.99C106.16 704 114.09 674.67 137.08 661.47L153.08 652.35C145.27 624.3 157.36 594.52 182.52 579.87L250.68 540.51L474.68 355.87C478.34 352.86 483.15 351.63 487.8 352.51C492.43 353.32 496.47 356.13 498.84 360.19L514.84 387.87C519.26 395.55 516.61 405.37 508.92 409.79C501.23 414.2 491.42 411.55 487 403.87L480.44 392.51L279.64 558.11L320.92 629.47C322.34 631.92 323.08 634.7 323.06 637.53C323.03 646.37 315.84 653.5 307 653.47C301.26 653.49 295.95 650.44 293.08 645.47L253.08 576.19L197.72 608.19C183.17 616.87 177.91 635.39 185.72 650.43L217.72 705.79C221.95 713.11 228.91 718.46 237.08 720.67C245.29 722.87 254.04 721.72 261.4 717.47L289.08 701.47L330.68 677.47C331.43 677.47 333.08 677.47 333.08 677.47L589.08 581.47L518.52 459.39C514.1 451.7 516.75 441.88 524.44 437.47C532.13 433.05 541.94 435.7 546.36 443.39L626.04 581.63ZM182.36 708.83L166.36 681.15L152.44 689.15C148.73 691.26 146.02 694.78 144.92 698.91C143.82 703.01 144.39 707.39 146.52 711.07C148.67 714.71 152.18 717.36 156.28 718.43C160.39 719.53 164.76 718.95 168.44 716.83L182.36 708.83ZM347.16 706.91L345.88 706.91L319.32 722.11L351.32 777.63C355.77 785.19 365.47 787.75 373.08 783.39C376.76 781.3 379.46 777.85 380.6 773.79C381.7 769.68 381.13 765.31 379 761.63L347.16 706.91Z" />
		</g>
	</g>
</svg>