<svg version="1.2" baseProfile="tiny-ps" xmlns="http://www.w3.org/2000/svg" viewBox="0 0 961 961" width="961" height="961">
	<title>Layer 1</title>
	<style>
		tspan { white-space:pre }
		.shp0 { fill: #2392bc } 
	</style>
	<g id="Layer 1">
		<g id="media-monitor-screen-Digital Marketing">
			<path id="&lt;Compound Path&gt;" fill-rule="evenodd" class="shp0" d="M960.11 256.82L960.11 768.82C960.04 795.3 938.59 816.74 912.11 816.82L544.11 816.82L544.11 864.82L640.11 864.82C648.95 864.82 656.11 871.99 656.11 880.82L656.11 944.82C656.11 953.66 648.95 960.82 640.11 960.82L320.11 960.82C311.28 960.82 304.11 953.66 304.11 944.82L304.11 880.82C304.11 871.99 311.28 864.82 320.11 864.82L416.11 864.82L416.11 816.82L48.11 816.82C21.64 816.74 0.19 795.3 0.11 768.82L0.11 256.82C0.19 230.35 21.64 208.9 48.11 208.82L80.11 208.82L80.11 64.82C80.11 55.99 87.28 48.82 96.11 48.82L416.11 48.82C424.95 48.82 432.11 55.99 432.11 64.82L432.11 208.82L528.11 208.82L528.11 192.82L496.11 192.82C487.28 192.82 480.11 185.66 480.11 176.82L480.11 112.82C480.11 103.99 487.28 96.82 496.11 96.82L528.11 96.82L528.11 80.82C528.11 71.99 535.28 64.82 544.11 64.82L653.71 64.82L859.47 1.46C864.31 0.03 869.54 0.98 873.55 4.02C877.71 6.95 880.16 11.74 880.11 16.82L880.11 96.82L896.11 96.82C922.62 96.82 944.11 118.31 944.11 144.82C944.11 171.33 922.62 192.82 896.11 192.82L880.11 192.82L880.11 208.82L912.11 208.82C938.59 208.9 960.04 230.35 960.11 256.82ZM880.11 160.82L896.11 160.82C904.95 160.82 912.11 153.66 912.11 144.82C912.11 135.99 904.95 128.82 896.11 128.82L880.11 128.82L880.11 160.82ZM672.11 196.98L848.11 251.22L848.11 38.42L672.11 92.66L672.11 196.98ZM560.11 192.82L640.11 192.82L640.11 96.82L560.11 96.82L560.11 192.82ZM928.11 256.82C928.11 247.99 920.95 240.82 912.11 240.82L880.11 240.82L880.11 272.82C879.99 281.61 872.9 288.69 864.11 288.82C862.54 288.86 860.98 288.64 859.47 288.18L653.71 224.82L638.03 224.82L623.95 323.06C622.84 330.96 616.09 336.82 608.11 336.82L560.11 336.82C551.28 336.82 544.11 329.66 544.11 320.82L544.11 240.82L432.11 240.82L432.11 320.82C432.11 329.66 424.95 336.82 416.11 336.82L96.11 336.82C87.28 336.82 80.11 329.66 80.11 320.82L80.11 240.82L48.11 240.82C39.28 240.82 32.11 247.99 32.11 256.82L32.11 720.82L928.11 720.82L928.11 256.82ZM528.11 160.82L528.11 128.82L512.11 128.82L512.11 160.82L528.11 160.82ZM112.11 304.82L400.11 304.82L400.11 80.82L112.11 80.82L112.11 304.82ZM336.11 896.82L336.11 928.82L624.11 928.82L624.11 896.82L336.11 896.82ZM512.11 864.82L512.11 816.82L448.11 816.82L448.11 864.82L512.11 864.82ZM928.11 752.82L32.11 752.82L32.11 768.82C32.11 777.66 39.28 784.82 48.11 784.82L912.11 784.82C920.95 784.82 928.11 777.66 928.11 768.82L928.11 752.82ZM576.11 224.82L576.11 304.82L594.19 304.82L605.71 224.82L576.11 224.82Z" />
			<path id="&lt;Compound Path&gt;" fill-rule="evenodd" class="shp0" d="M64.11 672.82L64.11 416.82C64.11 407.99 71.28 400.82 80.11 400.82L496.11 400.82C504.95 400.82 512.11 407.99 512.11 416.82L512.11 672.82C512.11 681.66 504.95 688.82 496.11 688.82L80.11 688.82C71.28 688.82 64.11 681.66 64.11 672.82ZM480.11 656.82L480.11 445.45L296.5 558.46C291.36 561.62 284.87 561.62 279.73 558.46L96.11 445.45L96.11 656.82L480.11 656.82ZM288.11 526.04L439.59 432.82L136.64 432.82L288.11 526.04Z" />
			<path id="&lt;Compound Path&gt;" fill-rule="evenodd" class="shp0" d="M544.11 576.82L544.11 384.82C544.11 375.99 551.28 368.82 560.11 368.82L848.11 368.82C856.95 368.82 864.11 375.99 864.11 384.82L864.11 432.82L880.11 432.82C888.95 432.82 896.11 439.99 896.11 448.82L896.11 640.82C896.11 649.66 888.95 656.82 880.11 656.82L608.11 656.82C599.28 656.82 592.11 649.66 592.11 640.82L592.11 592.82L560.11 592.82C551.28 592.82 544.11 585.66 544.11 576.82ZM864.11 464.82L624.11 464.82L624.11 624.82L864.11 624.82L864.11 464.82ZM576.11 560.82L592.11 560.82L592.11 448.82C592.11 439.99 599.28 432.82 608.11 432.82L832.11 432.82L832.11 400.82L576.11 400.82L576.11 560.82Z" />
			<path id="&lt;Path&gt;" class="shp0" d="M656.11 496.82L688.11 496.82L688.11 528.82L656.11 528.82L656.11 496.82Z" />
			<path id="&lt;Path&gt;" class="shp0" d="M720.11 496.82L832.11 496.82L832.11 528.82L720.11 528.82L720.11 496.82Z" />
			<path id="&lt;Path&gt;" class="shp0" d="M656.11 560.82L720.11 560.82L720.11 592.82L656.11 592.82L656.11 560.82Z" />
			<path id="&lt;Path&gt;" class="shp0" d="M752.11 560.82L832.11 560.82L832.11 592.82L752.11 592.82L752.11 560.82Z" />
			<path id="&lt;Compound Path&gt;" fill-rule="evenodd" class="shp0" d="M208.11 240.82L208.11 144.82C208.11 142.34 208.69 139.89 209.8 137.66C213.75 129.76 223.36 126.55 231.27 130.5L327.27 178.5C330.38 180.05 332.9 182.58 334.45 185.69C338.39 193.6 335.18 203.2 327.27 207.14L231.27 255.14C226.31 257.62 220.42 257.36 215.7 254.44C210.98 251.52 208.11 246.37 208.11 240.82ZM240.11 214.94L284.34 192.82L240.11 170.71L240.11 214.94Z" />
		</g>
	</g>
</svg>